<?xml version="1.0" encoding="UTF-8" standalone="no"?>
<!DOCTYPE svg PUBLIC "-//W3C//DTD SVG 1.1//EN" "http://www.w3.org/Graphics/SVG/1.1/DTD/svg11.dtd">
<svg width="100%" height="100%" viewBox="0 0 178 100" version="1.1" xmlns="http://www.w3.org/2000/svg" xmlns:xlink="http://www.w3.org/1999/xlink" xml:space="preserve" xmlns:serif="http://www.serif.com/" style="fill-rule:evenodd;clip-rule:evenodd;stroke-linejoin:round;stroke-miterlimit:2;">
    <g id="图标">
        <path d="M19.336,59.668C7.471,62.714 -1.669,68.006 2.503,75.575C0.415,69.288 8.856,64.704 19.817,62.394C28.846,60.49 38.109,60.793 47.611,62.264L49.36,59.23C44.086,58.443 38.948,57.97 34.002,57.97C28.887,57.97 23.976,58.477 19.336,59.668Z" style="fill:url(#_Linear1);fill-rule:nonzero;"/>
        <path d="M113.457,73.098L113.457,77.852C108.756,77.131 104.104,76.19 99.503,75.123L100.189,73.951L101.897,71.033C105.778,71.836 109.639,72.542 113.457,73.098" style="fill:#a9eef4;fill-rule:nonzero;"/>
        <path d="M170.86,48.283C172.463,60.149 160.883,69.83 141.678,73.457C138.388,74.009 135.015,74.298 131.576,74.371L131.576,79.366C137.488,79.396 143.473,78.925 149.534,77.787C181.372,71.804 181.443,48.765 169.904,42.301C170.789,44.496 170.573,46.156 170.86,48.283Z" style="fill:url(#_Linear2);fill-rule:nonzero;"/>
        <path d="M78.889,13.97C78.105,13.97 77.38,14.39 76.989,15.071L46.193,68.727L69.122,57.503L77.861,42.351L78.021,53.094L92.132,46.68L91.907,17.818C91.907,15.574 90.368,13.97 88.283,13.97L78.889,13.97Z" style="fill:url(#_Linear3);fill-rule:nonzero;"/>
        <path d="M115.381,46.922L115.381,86.766C115.381,89.011 116.751,90.614 118.835,90.614L128.228,90.614C128.759,90.614 129.26,90.423 129.652,90.088L129.652,40.837L115.381,46.922Z" style="fill:url(#_Linear4);fill-rule:nonzero;"/>
        <path d="M116.41,13.97C116.023,13.97 115.546,14.106 115.221,14.291L115.221,37.541L129.652,33.692L129.427,17.818C129.427,15.574 127.888,13.97 125.804,13.97L116.41,13.97Z" style="fill:url(#_Linear5);fill-rule:nonzero;"/>
        <path d="M115.205,14.331C114.923,14.516 98.064,43.954 98.064,43.954L115.221,37.541C115.221,37.541 115.221,14.331 115.205,14.331L115.205,14.331Z" style="fill:url(#_Linear6);fill-rule:nonzero;"/>
        <path d="M91.79,55.486L91.737,55.577L91.736,55.508C86.956,57.476 82.53,59.371 77.861,61.432L77.861,80.11C77.861,82.355 79.23,83.958 81.315,83.958L90.708,83.958C91.239,83.958 91.74,83.767 92.132,83.432L92.132,55.346L91.79,55.486Z" style="fill:url(#_Linear7);fill-rule:nonzero;"/>
        <path d="M92.132,55.346L92.132,83.432C92.319,83.273 92.483,83.079 92.609,82.858L112.736,47.791C105.839,49.945 98.945,52.55 92.132,55.346Z" style="fill:url(#_Linear8);fill-rule:nonzero;"/>
        <path d="M41.531,76.59L33.446,90.614L43.084,90.614C48.553,90.614 51.405,87.407 52.766,85.27C54.127,83.132 62.8,68.11 62.8,68.11C55.399,71.336 48.267,74.298 41.531,76.59Z" style="fill:url(#_Linear9);fill-rule:nonzero;"/>
        <path d="M117.245,39.933C110.454,42.102 103.346,44.847 96.179,47.878C94.671,48.513 93.161,49.162 91.651,49.82C86.912,51.888 82.173,54.051 77.505,56.224C73.883,57.909 70.306,59.6 66.805,61.258C58.777,65.062 51.161,68.686 44.377,71.65C34.86,75.811 26.981,78.675 21.901,78.909C3.783,80.352 1.859,72.976 1.378,71.373C1.378,73.938 2.34,80.192 15.969,81.154C23.484,81.684 32.12,79.792 41.531,76.59C48.267,74.298 55.399,71.336 62.8,68.11C67.612,66.013 72.539,63.803 77.547,61.595C82.216,59.535 86.956,57.476 91.736,55.508C91.753,55.501 91.772,55.494 91.79,55.486C98.714,52.637 105.724,49.98 112.736,47.791C124.328,44.172 135.924,41.836 147.129,42.03C158.512,42.227 172.143,46.52 176.953,55.82C177.434,42.832 163.787,36.381 145.686,35.135C144.78,35.073 143.852,35.043 142.902,35.043C135.416,35.043 126.635,36.935 117.245,39.933Z" style="fill:url(#_Linear10);fill-rule:nonzero;"/>
    </g>
    <defs>
        <linearGradient id="_Linear1" x1="0" y1="0" x2="1" y2="0" gradientUnits="userSpaceOnUse" gradientTransform="matrix(0,17.6055,-17.6055,0,25.4187,57.97)"><stop offset="0" style="stop-color:#a2f0f6;stop-opacity:1"/><stop offset="0.82" style="stop-color:#a3f0f6;stop-opacity:1"/><stop offset="1" style="stop-color:#a3f0f6;stop-opacity:1"/></linearGradient>
        <linearGradient id="_Linear2" x1="0" y1="0" x2="1" y2="0" gradientUnits="userSpaceOnUse" gradientTransform="matrix(-34.938,39.6147,-39.6147,-34.938,173.6,45.881)"><stop offset="0" style="stop-color:#94f6fa;stop-opacity:1"/><stop offset="0.93" style="stop-color:#a7eff5;stop-opacity:1"/><stop offset="1" style="stop-color:#a7eff5;stop-opacity:1"/></linearGradient>
        <linearGradient id="_Linear3" x1="0" y1="0" x2="1" y2="0" gradientUnits="userSpaceOnUse" gradientTransform="matrix(0,-51.4981,51.4981,-0,69.1625,68.8594)"><stop offset="0" style="stop-color:#64c5f7;stop-opacity:1"/><stop offset="1" style="stop-color:#387ad7;stop-opacity:1"/></linearGradient>
        <linearGradient id="_Linear4" x1="0" y1="0" x2="1" y2="0" gradientUnits="userSpaceOnUse" gradientTransform="matrix(0,47.305,-47.305,0,122.517,47.0003)"><stop offset="0" style="stop-color:#4a9fed;stop-opacity:1"/><stop offset="0.87" style="stop-color:#86f2f6;stop-opacity:1"/><stop offset="1" style="stop-color:#86f2f6;stop-opacity:1"/></linearGradient>
        <linearGradient id="_Linear5" x1="0" y1="0" x2="1" y2="0" gradientUnits="userSpaceOnUse" gradientTransform="matrix(0,15.9297,-15.9297,0,122.436,17.6495)"><stop offset="0" style="stop-color:#387ad7;stop-opacity:1"/><stop offset="1" style="stop-color:#387ad7;stop-opacity:1"/></linearGradient>
        <linearGradient id="_Linear6" x1="0" y1="0" x2="1" y2="0" gradientUnits="userSpaceOnUse" gradientTransform="matrix(-12.1264,21.6167,-21.6167,-12.1264,117.037,22.2181)"><stop offset="0" style="stop-color:#b8e0f8;stop-opacity:1"/><stop offset="1" style="stop-color:#a0e6fe;stop-opacity:1"/></linearGradient>
        <linearGradient id="_Linear7" x1="0" y1="0" x2="1" y2="0" gradientUnits="userSpaceOnUse" gradientTransform="matrix(0,29.4679,-29.4679,0,84.9964,57.8547)"><stop offset="0" style="stop-color:#56aded;stop-opacity:1"/><stop offset="0.83" style="stop-color:#7cedf7;stop-opacity:1"/><stop offset="1" style="stop-color:#7cedf7;stop-opacity:1"/></linearGradient>
        <linearGradient id="_Linear8" x1="0" y1="0" x2="1" y2="0" gradientUnits="userSpaceOnUse" gradientTransform="matrix(-29.1228,40.0941,-40.0941,-29.1228,109.543,45.4719)"><stop offset="0" style="stop-color:#aef0ff;stop-opacity:1"/><stop offset="1" style="stop-color:#8af9fe;stop-opacity:1"/></linearGradient>
        <linearGradient id="_Linear9" x1="0" y1="0" x2="1" y2="0" gradientUnits="userSpaceOnUse" gradientTransform="matrix(0,22.5041,-22.5041,0,48.1231,68.1099)"><stop offset="0" style="stop-color:#63c4f6;stop-opacity:1"/><stop offset="0.87" style="stop-color:#86f2f6;stop-opacity:1"/><stop offset="1" style="stop-color:#86f2f6;stop-opacity:1"/></linearGradient>
        <linearGradient id="_Linear10" x1="0" y1="0" x2="1" y2="0" gradientUnits="userSpaceOnUse" gradientTransform="matrix(-48.1605,66.3038,-66.3038,-48.1605,116.552,25.8922)"><stop offset="0" style="stop-color:#5290db;stop-opacity:1"/><stop offset="1" style="stop-color:#71ceea;stop-opacity:1"/></linearGradient>
    </defs>
</svg>
